# xmcd
#
# Track frame offsets:
# 150
# 6145
# 64725
# 79205
# 132745
# 171390
# 225220
#
# Disc length: 3466 seconds
#
# Revision: 0
# Processed by: cddbd v1.4PL0 Copyright (c) Steve Scherf et al.
# Submitted via: Audion 2.5.0 (http://www.panic.com/audion/)
#
DISCID=550d8807
DTITLE=SCI - 8-4-01 Disc 1
DYEAR=1900
DGENRE=
TTITLE0=Way Back Home
TTITLE1=John Hardy
TTITLE2=Got What He Wanted
TTITLE3=Turn This Around
TTITLE4=Naive Melody
TTITLE5=On the Road
TTITLE6=
EXTD=
EXTT0=
EXTT1=
EXTT2=
EXTT3=
EXTT4=
EXTT5=
EXTT6=
PLAYORDER=
